<?xml version="1.0" encoding="UTF-8"?>
<svg id="Calque_1" xmlns="http://www.w3.org/2000/svg" viewBox="0 0 165.62 555.44">
    <defs>
        <style>
            .cls-1,.cls-2{fill:#608681;stroke-width:0px;}.cls-2{fill-rule:evenodd;}
        </style>
    </defs>
    <path class="cls-1" d="M12.45,451.19v-140.82c0,3.32.84,6.23,2.32,8.94,3.17,5.92,6.63,10.83,11.99,16.75l41.39,44.79,5.06,4.23v21.05s-5.42,2.64-5.42,2.64l-48.71,33.7c-1.77,1.21-2.39,2.6-3.9,4.15-1.4,1.4-2.73,2.94-2.73,4.57Z"/><path class="cls-1" d="M42.83,555.44c-16.68,0-30.37-13.51-30.37-30.19v-35.7s-1.42.08-1.38.11c1.09,1.62,1.61,3.09,2.97,4.49,4.79,5.02,10.69,8.41,17.71,9.74,8.94,1.66,17.82-.23,25.33-5.36l10.8-6.41,5.33-2.6v35.73c0,16.68-13.7,30.19-30.37,30.19Z"/><path class="cls-1" d="M108.17,225.32c-1.06-1.25-2.23-2.38-3.47-3.4-3.13-2.64-6.83-4.53-10.98-5.43-11.81-2.64-23.05-7.28-33.51-13.73l29.62-35.32c4-4.75,6.19-10.79,6.19-16.98,0-7.85-3.43-15.21-9.43-20.26-11.17-9.36-27.85-7.89-37.2,3.28l-33.02,39.32-8.98,11.14c0-23.07-.7-80.47,47.9-77.98,55.32,2.83,56.13,67.67,55.3,87.26-.45,10.15-1.32,21.02-2.41,32.11Z"/><path class="cls-1" d="M12.71,487.52c-3.55-5.21-5.32-11.13-5.32-16.98,0-9.62,4.45-19.13,13.02-24.94l66.71-46.98-58.3-65.09c-14.87-16.45-20.53-23.47-20.9-80.71-.08-8.38-.15-16.3-.15-23.92.53.49,1.13,1.06,1.77,1.62.64.57,1.28,1.17,2,1.81,1.47,1.25,3.09,2.64,4.94,4.07,1.85,1.47,3.89,3.02,6.11,4.64,10.57,7.62,25.21,16.26,43.54,22.45,2.45.87,4.94,1.62,7.55,2.34,2.75.83,5.55,1.55,8.45,2.19,6.08,1.36,12.3.6,17.77-2.23.75-.34,1.43-.75,2.15-1.21.68-.41,1.32-.87,1.96-1.4-1.96,17.28-3.85,33.7-4.64,47.43l57.01,70.3c6.19,8.53,9.89,15.21,9.13,24.26-.75,9.06-5.58,17.28-13.06,22.41l-97.73,67.84c-13.77,9.4-32.64,5.85-42.03-7.92Z"/><path class="cls-1" d="M0,206.41c0-5.17,1.76-10.34,5.3-14.55l46.97-55.97c8.04-9.58,22.32-10.83,31.9-2.79,9.58,8.04,10.82,22.32,2.79,31.9l-32.39,38.6c9.07,6.08,22.05,12.91,38.34,16.57,12.2,2.75,19.87,14.87,17.12,27.06-2.75,12.2-14.86,19.86-27.06,17.12-48.49-10.91-76.12-41.63-77.27-42.93-3.79-4.28-5.69-9.64-5.69-15Z"/><path class="cls-2" d="M48.15,104.78C19.47,99.4.58,71.78,5.96,43.11,11.34,14.43,38.95-4.46,67.63.91c28.68,5.38,47.57,32.99,42.19,61.67-5.38,28.68-32.99,47.57-61.67,42.19Z"/>
</svg>