<?xml version="1.0" encoding="UTF-8"?>
<svg id="Layer_1" data-name="Layer 1" xmlns="http://www.w3.org/2000/svg" viewBox="0 0 100 166.21">
  <defs>
    <style>
      .cls-1 {
        stroke-width: 0px;
      }

      .cls-1, .cls-2 {
        fill: #3C5370;
      }

      .cls-2 {
        stroke: #fff;
        stroke-miterlimit: 10;
        stroke-width: .75px;
      }
    </style>
  </defs>
  <g>
    <path class="cls-1" d="M44.82,133.52l-1.71,9.69c-.62,3.51,1.72,6.85,5.23,7.47,2.5.44,4.91-.62,6.31-2.54l-9.83-14.62Z"/>
    <circle class="cls-1" cx="50.41" cy="33.68" r="11.86"/>
    <path class="cls-1" d="M92.68,78.09l-16.77-6.95c-1.01-.42-1.81-1.22-2.23-2.23l-6.18-14.93c-1.6-3.86-5.36-6.37-9.53-6.37h-15.1c-4.17,0-7.94,2.51-9.53,6.37l-6.18,14.93c-.42,1.01-1.22,1.81-2.23,2.23l-16.77,6.95c-6.05,2.51-2.23,11.53,3.75,9.05l17.76-7.36c2.78-1.15,4.99-3.36,6.14-6.14l3.42-8.27c.1-.23.32-.38.57-.38.21,0,.4.1.51.27.11.17.14.39.06.58l-3.42,8.27c-.27.66-.6,1.27-.97,1.86v16.76c0,.86.05,1.72.16,2.58l3.27,25.95c.2,1.61.78,3.15,1.69,4.5,4.82,7.16,3.23,4.8,14.93,22.19,2.03,3.02,6.19,3.72,9.1,1.52l.11-.08c2.73-2.07,3.4-5.86,1.56-8.72l-14.47-22.48c-.25-.39-.41-.83-.47-1.29l-2.72-21.51c-.09-.73.47-1.37,1.2-1.37s1.33.68,1.2,1.42l-.66,3.75,2.21,17.55c.03.28.13.54.28.77l5.78,8.98,5.4-30.7c.21-1.18.31-2.38.31-3.57v-16.26c-.37-.59-.7-1.21-.97-1.87l-3.44-8.27c-.08-.19-.06-.41.06-.58.11-.17.31-.28.51-.28.25,0,.48.15.57.38l3.44,8.27c1.15,2.78,3.36,4.99,6.14,6.14l17.76,7.36c5.98,2.48,9.8-6.54,3.75-9.05Z"/>
  </g>
  <path class="cls-2" d="M49.46,22.45l10.84,5.66c.62.33,1.37-.11,1.4-.81l.58-15.12c.02-.46-.5-.73-.87-.45l-12.08,9.11c-.56.42-.49,1.29.13,1.61Z"/>
  <circle class="cls-1" cx="61.78" cy="12.26" r="1.49"/>
</svg>