<?xml version="1.0" encoding="UTF-8"?>
<svg id="Layer_1" data-name="Layer 1" xmlns="http://www.w3.org/2000/svg" viewBox="0 0 125.63 152.62">
  <defs>
    <style>
      .cls-1 {
        fill: #608681;
      }

      .cls-1, .cls-2 {
        stroke-width: 0px;
      }

      .cls-2 {
        fill: #fff;
      }
    </style>
  </defs>
  <g>
    <circle class="cls-1" cx="68.06" cy="38.57" r="11"/>
    <path class="cls-1" d="M68.83,127.83c-.63-.5-1.22-1.07-1.74-1.72-1.94-2.44-2.63-5.6-1.92-8.65l.32-1.38c-2.56-.04-5.42-.16-8.12-.41l-.51,5.39c-.08.87-.05,1.75.1,2.61l3.62,21.31c.51,3.03,3.38,5.01,6.35,4.5,2.99-.5,5-3.35,4.49-6.34l-2.6-15.32Z"/>
    <path class="cls-1" d="M100.83,115.64c-.88-2.91-3.94-4.55-6.85-3.68-.16.05-15.31,4.67-15.31,4.67-.37.11-.72-.22-.63-.59l.07-.31c-3.47.3-7.12.38-10.05.38-.43,0-.88,0-1.34,0l-.38,1.64c-1.58,6.74,4.73,12.67,11.36,10.68l19.45-5.91c2.85-.87,4.56-3.88,3.67-6.85Z"/>
    <path class="cls-1" d="M98.63,58.38c-2.5,1.03-7.32.33-9.07-2.72l-5.46,2.75c1.65,1.61,4,2.46,6.79,2.57,5.91.24,8.95-3.09,7.75-2.6Z"/>
    <path class="cls-1" d="M81.93,35.99c1.39,1.17,2.37,3.99,1.01,7.91-.48,1.42-.84,2.75-1.07,3.99l8.89-4.47c.03-1.59-.18-3.19-.75-4.86-2.15-6.3-7.25-8.13-11.82-6.76.62.92,1.11,1.93,1.46,3,.84.28,1.63.66,2.28,1.2Z"/>
    <path class="cls-1" d="M91.47,54.69l-.77.39c.51.92,1.41,1.48,2.55,1.92,3.06-.74,4.39-2.55,3.65-2.17-1.49.75-3.78.64-5.43-.14Z"/>
    <path class="cls-1" d="M108.78,20.64c-2.09-.69-4.36.45-5.06,2.54l-5.57,16.86c-.25.76-.79,1.38-1.5,1.74l-17.31,8.71c-1.39.7-2.93,1.07-4.49,1.07-5.64,0-13.09,0-15.47,0-.51,0-1.01-.04-1.51-.12l-20.75-3.18c-.79-.12-1.49-.55-1.96-1.19l-10.5-14.32c-.37-.5-.83-.89-1.34-1.16-.38,1.17-.69,2.13-.94,2.9-.37,1.12-.66,2.01-.77,2.47.47.32,1.44.79,1.93,1.03.62.29.93.99.75,1.66-.18.61-.74,1.03-1.36,1.03h-.15c-.82-.09-1.7-.26-2.58-.48l8.77,11.95c1.57,2.14,3.92,3.56,6.55,3.97l19.13,2.93c.44.07.78.41.84.84.77,5.49,1.73,12.29,2.28,15.76.24,1.54.12,3.11-.35,4.6-1.94,6.05-7.69,20.79-9.91,31.13,0,4.7,41.14,4.7,41.14,0-2.22-10.34-7.96-25.08-9.9-31.13-.48-1.49-.6-3.05-.35-4.6.57-3.61,1.59-10.83,2.36-16.43.05-.33.25-.6.54-.75l19.33-9.73c2.37-1.19,4.17-3.28,5-5.8l5.7-17.26c.56-2.15-.45-4.36-2.54-5.06Z"/>
    <path class="cls-1" d="M18.57,36.01c.17-.45.45-1.34.8-2.48.18-.59.4-1.3.66-2.12-.33.12-.66.27-.96.49-1.3.96-1.79,2.51-1.48,4.01.37.05.73.09.99.1Z"/>
  </g>
  <path class="cls-1" d="M22.12,30.5h0c2.2,0,3.99,1.79,3.99,3.99v7.8h-7.97v-7.8c0-2.2,1.79-3.99,3.99-3.99Z" transform="translate(-17.32 20.32) rotate(-36.54)"/>
  <path class="cls-2" d="M18.52,32.08h7.61v2.9h-7.61c-.8,0-1.45-.65-1.45-1.45h0c0-.8.65-1.45,1.45-1.45Z" transform="translate(-2.69 65.16) rotate(-109.68)"/>
  <g>
    <path class="cls-1" d="M19.47,26.45h-.03c-.06.03-.09.09-.07.15l3.36,9.51c.05.13-.02.27-.15.32s-.27-.02-.32-.15l-3.36-9.51c-.02-.06-.08-.09-.14-.07h-.03c-.06.03-.12,0-.14-.05l-3.23-9.15c-.02-.06,0-.12.07-.14l.74-.26c.06-.02.12,0,.14.07l3.23,9.15c.02.06,0,.12-.07.14Z"/>
    <rect class="cls-1" x="15.11" y="11.58" width=".19" height="3.1" transform="translate(32.13 23.96) rotate(171.81)"/>
    <rect class="cls-1" x="18.18" y="12.36" width=".19" height="3.1" transform="translate(24.57 35.99) rotate(-143.19)"/>
    <rect class="cls-1" x="19.26" y="13.56" width=".19" height="3.1" transform="translate(16.24 39.46) rotate(-120.7)"/>
    <rect class="cls-1" x="19.71" y="16.69" width=".19" height="3.1" transform="translate(-2.76 32.93) rotate(-75.7)"/>
    <rect class="cls-1" x="19.01" y="18.15" width=".19" height="3.1" transform="translate(-8.11 23.2) rotate(-53.2)"/>
    <rect class="cls-1" x="14.68" y="19.68" width=".19" height="3.1" transform="translate(5.7 -2.99) rotate(14.3)"/>
    <rect class="cls-1" x="13.22" y="18.98" width=".19" height="3.1" transform="translate(14.95 -3.89) rotate(36.78)"/>
    <rect class="cls-1" x="11.61" y="16.26" width=".19" height="3.1" transform="translate(27.66 3.68) rotate(81.78)"/>
    <rect class="cls-1" x="11.69" y="14.65" width=".19" height="3.1" transform="translate(30.4 8.78) rotate(104.3)"/>
    <rect class="cls-1" x="13.59" y="12.11" width=".19" height="3.1" transform="translate(32.43 18.43) rotate(149.3)"/>
    <rect class="cls-1" x="15.11" y="11.58" width=".19" height="3.1" transform="translate(32.13 23.96) rotate(171.81)"/>
    <rect class="cls-1" x="13.33" y="8.09" width=".31" height="5.2" transform="translate(29.77 16.28) rotate(160.53)"/>
    <rect class="cls-1" x="16.01" y="7.71" width=".31" height="5.2" transform="translate(31.76 21.46) rotate(-176.95)"/>
    <rect class="cls-1" x="18.63" y="8.37" width=".31" height="5.2" transform="translate(31 28.98) rotate(-154.45)"/>
    <rect class="cls-1" x="20.79" y="9.99" width=".31" height="5.2" transform="translate(25.59 36.6) rotate(-131.96)"/>
    <rect class="cls-1" x="22.17" y="12.32" width=".31" height="5.2" transform="translate(15.7 40.94) rotate(-109.44)"/>
    <rect class="cls-1" x="22.56" y="14.99" width=".31" height="5.2" transform="translate(3.94 39.35) rotate(-86.95)"/>
    <rect class="cls-1" x="21.89" y="17.62" width=".31" height="5.2" transform="translate(-5.7 31.38) rotate(-64.43)"/>
    <rect class="cls-1" x="20.27" y="19.78" width=".31" height="5.2" transform="translate(-9.73 19.4) rotate(-41.96)"/>
    <rect class="cls-1" x="15.27" y="21.55" width=".31" height="5.2" transform="translate(1.31 -.79) rotate(3.05)"/>
    <rect class="cls-1" x="12.65" y="20.88" width=".31" height="5.2" transform="translate(11.38 -3.23) rotate(25.56)"/>
    <rect class="cls-1" x="10.49" y="19.26" width=".31" height="5.2" transform="translate(19.79 -.67) rotate(48.06)"/>
    <rect class="cls-1" x="9.11" y="16.93" width=".31" height="5.2" transform="translate(24.6 4.3) rotate(70.56)"/>
    <rect class="cls-1" x="8.72" y="14.26" width=".31" height="5.2" transform="translate(26.18 8.89) rotate(93.05)"/>
    <rect class="cls-1" x="9.39" y="11.64" width=".31" height="5.2" transform="translate(26.51 11.77) rotate(115.55)"/>
    <rect class="cls-1" x="11.01" y="9.47" width=".31" height="5.2" transform="translate(27.54 13.59) rotate(138.06)"/>
    <rect class="cls-1" x="13.33" y="8.09" width=".31" height="5.2" transform="translate(29.77 16.28) rotate(160.53)"/>
    <polygon class="cls-1" points="11.93 6.28 11.87 6.82 11.38 7.08 11.88 7.31 11.97 7.85 12.34 7.45 12.88 7.52 12.62 7.05 12.86 6.56 12.32 6.66 11.93 6.28"/>
    <polygon class="cls-1" points="20.8 6.76 20.37 7.09 19.85 6.93 20.04 7.44 19.73 7.89 20.27 7.87 20.6 8.31 20.75 7.78 21.26 7.6 20.81 7.3 20.8 6.76"/>
    <polygon class="cls-1" points="26.74 13.36 26.2 13.3 25.95 12.81 25.72 13.31 25.18 13.4 25.58 13.77 25.5 14.31 25.98 14.05 26.47 14.29 26.36 13.75 26.74 13.36"/>
    <polygon class="cls-1" points="26.27 22.23 25.93 21.8 26.09 21.28 25.58 21.47 25.14 21.16 25.16 21.7 24.72 22.03 25.24 22.18 25.42 22.69 25.72 22.24 26.27 22.23"/>
    <polygon class="cls-1" points="10.79 27.7 11.22 27.36 11.74 27.52 11.55 27.01 11.87 26.57 11.32 26.59 11 26.15 10.85 26.67 10.33 26.85 10.78 27.15 10.79 27.7"/>
    <polygon class="cls-1" points="4.85 21.09 5.39 21.16 5.65 21.64 5.88 21.14 6.42 21.05 6.02 20.68 6.09 20.14 5.62 20.41 5.13 20.17 5.23 20.7 4.85 21.09"/>
    <polygon class="cls-1" points="5.33 12.22 5.66 12.65 5.5 13.17 6.01 12.98 6.46 13.3 6.44 12.75 6.88 12.43 6.35 12.28 6.17 11.76 5.87 12.21 5.33 12.22"/>
  </g>
</svg>