<?xml version="1.0" encoding="UTF-8"?>
<svg id="Layer_1" data-name="Layer 1" xmlns="http://www.w3.org/2000/svg" viewBox="0 0 196.07 147.23">
  <defs>
    <style>
      .cls-1 {
        fill: #608681;
        stroke-width: 0px;
      }
    </style>
  </defs>
  <g id="id1:id6:id6">
    <path class="cls-1" d="M114.04,24.26c-.32.12-14.38,6.76-14.7,6.94-1.21.68-2.29,1.55-3.93,3.14l-1.18,1.15-.36-.16c-2.05-.9-4.45-.28-5.82,1.51-.67.89-1,1.87-1,3.03v.63l-1.15.62c-.64.35-1.58.84-2.11,1.1-.72.37-.98.53-1.09.7-.1.14-.14.27-.11.36.14.42.98,2.12,1.12,2.25.25.23.53.16,1.98-.47,1.9-.83,2.99-1.25,3.05-1.18.09.09,7.82,11.72,7.8,11.74,0,.01-3.93-.01-8.71-.05l-8.7-.07-.42.48c-2.61,2.97-6.03,4.77-9.92,5.22-.97.11-3.08.04-4.05-.13-2.54-.44-4.95-1.52-6.85-3.05-.54-.43-1.22-.76-1.86-.91-.74-.16-1.9-.1-2.6.13-1.04.35-1.92,1.02-2.5,1.89-.38.56-21.67,46.75-21.84,47.38-.18.65-.16,1.96.03,2.6.42,1.32,1.31,2.41,2.49,3,1.22.61,2.73.68,4.01.18,1.03-.4,2.02-1.32,2.56-2.38.18-.35,3.99-8.6,8.47-18.32,4.47-9.73,8.16-17.67,8.18-17.64.03.03,1.53,7.34,3.35,16.25,2.25,11.03,3.38,16.41,3.52,16.84.67,2,2.35,3.77,4.31,4.56.28.11.79.28,1.13.37l.63.18,43.62.02c30.39.01,43.78,0,44.16-.05,3-.39,5.54-2.55,6.37-5.42.93-3.21-.33-6.64-3.12-8.5-.79-.52-1.57-.85-2.63-1.12-.4-.1-2.62-.12-31.32-.15l-30.89-.03,3.73-2.45c2.05-1.34,3.78-2.45,3.85-2.44.07,0,1.36.8,2.86,1.77l2.73,1.77h14.03c7.81,0,13.99-.03,13.96-.06-.17-.14-29.73-19.24-30.12-19.44-1.11-.6-2.39-.87-3.81-.82-1.25.05-2.05.25-3.12.8-.25.12-2.64,1.66-5.32,3.42-4.66,3.06-4.86,3.19-4.83,2.99.08-.48,2.18-16.74,2.18-16.9v-.18l3.8.04c2.09.03,5.78.05,8.2.06q4.4.01,4.91-.14c2.78-.8,4.27-3.69,3.29-6.38-.21-.59-.32-.76-8.61-13.23l-2.9-4.37,1.25-.18c1.41-.2,2.45-.44,3.39-.8.54-.2,13.24-6.14,14.63-6.84.57-.28.77-.56.77-1.05,0-.29-.2-.75-1.72-3.98-.95-2.01-1.79-3.75-1.88-3.87-.08-.12-.26-.25-.38-.31-.22-.09-.63-.11-.81-.05ZM111.7,32.74c.52,1.08.92,1.98.91,2-.07.06-8.12,3.82-8.18,3.82-.08,0-1.96-3.96-1.9-4.02.1-.1,8.17-3.86,8.21-3.82.02.03.46.93.97,2.02ZM66.22,32.5c-3.3.25-6.32,1.64-8.68,4-2.07,2.07-3.31,4.49-3.85,7.44-.16.92-.2,2.88-.07,3.93.82,6.36,5.85,11.29,12.23,11.96,1,.1,2.75.05,3.72-.13,2.84-.5,5.32-1.8,7.37-3.85,2.6-2.6,3.99-5.97,3.99-9.68s-1.45-7.18-4.16-9.82c-2.81-2.73-6.67-4.14-10.56-3.84Z"/>
  </g>
</svg>