<?xml version="1.0" encoding="UTF-8"?>
<svg id="Layer_1" data-name="Layer 1" xmlns="http://www.w3.org/2000/svg" viewBox="0 0 97.74 82.26">
  <defs>
    <style>
      .cls-1 {
        fill: #608681;
        stroke-width: 0px;
      }
    </style>
  </defs>
  <g id="id1:id1:id1">
    <path class="cls-1" d="M73.65,11.34c-2,.22-3.91.97-5.56,2.18-.64.47-1.78,1.61-2.25,2.25-1.38,1.88-2.1,3.9-2.24,6.25l-.04.62.56.03c.31.02.57.02.6,0,.02-.01.04-.24.04-.51,0-1.72.64-3.69,1.68-5.24,1.76-2.62,4.56-4.25,7.69-4.45,5.29-.35,9.89,3.39,10.64,8.66.09.62.1,1.93.02,2.55-.14,1.18-.44,2.16-.96,3.24-.53,1.08-1.08,1.86-1.92,2.7-2.67,2.68-6.68,3.62-10.26,2.43-.98-.33-1.99-.84-2.75-1.4-.17-.13-.33-.23-.34-.23,0,0-.17.2-.36.44l-.35.44.12.1c1.13.88,2.91,1.72,4.33,2.03,1.25.28,2.8.35,3.98.18,4.45-.62,8.03-3.73,9.3-8.06.07-.25.19-.78.27-1.19.11-.62.13-.9.13-1.78,0-1.16-.07-1.77-.32-2.81-1.08-4.33-4.73-7.64-9.17-8.32-.65-.1-2.21-.14-2.83-.07ZM7.88,13.04v.69h17.78l3.7,4.78,3.7,4.78-3.93.03-3.93.03,4.43,5.52c2.44,3.04,7.53,9.39,11.32,14.11l6.89,8.59v11.97c0,11.35,0,11.97-.09,11.99-.05.02-2.35.5-5.11,1.08s-5.04,1.08-5.07,1.1c-.03.02,5.23.04,11.67.04,7.27,0,11.68-.02,11.62-.05-.09-.04-1.66-.37-8.94-1.91-.46-.1-.95-.2-1.08-.23l-.24-.06v-23.88l3.96-4.94c2.18-2.72,5.58-6.95,7.54-9.4s5.29-6.59,7.38-9.2l3.8-4.74-19.24-.03-19.24-.03-4.22-5.45-4.22-5.45-9.23-.02H7.88s0,.68,0,.68ZM36.02,27.1c1.97,2.54,2.28,2.96,2.21,3.01-1.28.75-2.33,1.73-3.28,3.04l-.39.54-3.61-4.51c-1.99-2.48-3.72-4.63-3.84-4.79l-.22-.28h3.43s3.42.03,3.42.03l2.29,2.96ZM69.08,27.24c-1.38,1.72-3,3.74-3.6,4.48l-1.09,1.36-.75.18c-2.25.54-4.02.73-6.24.68-1.42-.03-2.32-.13-3.5-.37-2.13-.43-3.72-1.03-7.01-2.62-2.25-1.1-3.26-1.47-4.45-1.64-.61-.09-1.85-.03-2.4.1-.23.06-.43.1-.44.1-.01-.02-3.79-4.91-4.01-5.2l-.15-.19h36.14l-2.5,3.12Z"/>
  </g>
</svg>