<?xml version="1.0" encoding="UTF-8"?>
<svg id="Calque_1" data-name="Calque 1" xmlns="http://www.w3.org/2000/svg" xmlns:xlink="http://www.w3.org/1999/xlink" viewBox="0 0 435.44 190.15">
  <defs>
    <style>
      .cls-1 {
        fill: url(#Dégradé_sans_nom_7);
      }

      .cls-1, .cls-2, .cls-3, .cls-4, .cls-5, .cls-6, .cls-7, .cls-8 {
        stroke-width: 0px;
      }

      .cls-2 {
        fill: #618681;
      }

      .cls-3 {
        fill: #9e75b2;
      }

      .cls-4 {
        fill: url(#Dégradé_sans_nom_12);
      }

      .cls-5 {
        fill: url(#Dégradé_sans_nom_16);
      }

      .cls-6 {
        fill: url(#Dégradé_sans_nom_10);
      }

      .cls-7 {
        fill: url(#Dégradé_sans_nom_20);
      }

      .cls-8 {
        fill: url(#Dégradé_sans_nom_25);
      }
    </style>
    <linearGradient id="Dégradé_sans_nom_10" data-name="Dégradé sans nom 10" x1="97.94" y1="115.21" x2="150.74" y2="115.21" gradientUnits="userSpaceOnUse">
      <stop offset="0" stop-color="#946fac"/>
      <stop offset="1" stop-color="#8268a1"/>
    </linearGradient>
    <linearGradient id="Dégradé_sans_nom_12" data-name="Dégradé sans nom 12" x1="157.4" y1="115.21" x2="209" y2="115.21" gradientUnits="userSpaceOnUse">
      <stop offset="0" stop-color="#80689e"/>
      <stop offset="1" stop-color="#706494"/>
    </linearGradient>
    <linearGradient id="Dégradé_sans_nom_16" data-name="Dégradé sans nom 16" x1="221.07" y1="115.21" x2="268.5" y2="115.21" gradientUnits="userSpaceOnUse">
      <stop offset="0" stop-color="#6d6292"/>
      <stop offset="1" stop-color="#5c5d88"/>
    </linearGradient>
    <linearGradient id="Dégradé_sans_nom_20" data-name="Dégradé sans nom 20" x1="279.33" y1="115.21" x2="322.26" y2="115.21" gradientUnits="userSpaceOnUse">
      <stop offset="0" stop-color="#585c86"/>
      <stop offset="1" stop-color="#4a587e"/>
    </linearGradient>
    <linearGradient id="Dégradé_sans_nom_25" data-name="Dégradé sans nom 25" x1="330.5" y1="115.21" x2="377.93" y2="115.21" gradientUnits="userSpaceOnUse">
      <stop offset="0" stop-color="#44587d"/>
      <stop offset="1" stop-color="#375473"/>
    </linearGradient>
    <linearGradient id="Dégradé_sans_nom_7" data-name="Dégradé sans nom 7" x1="44.13" y1="115.21" x2="91.57" y2="115.21" gradientUnits="userSpaceOnUse">
      <stop offset="0" stop-color="#9e75b2"/>
      <stop offset="1" stop-color="#9770ad"/>
    </linearGradient>
  </defs>
  <path class="cls-6" d="M117.49,139.31l-3.26,16.43h-16.29l15.71-81.07h21.42l15.67,81.07h-16.34l-3.16-16.43h-13.75ZM120.41,124.32h7.86l-3.93-34.54-3.93,34.54Z"/>
  <path class="cls-4" d="M173.49,103.52v52.22h-16.1v-81.07h22.33l13.18,52.46v-52.46h16.1v81.07h-22.28l-13.22-52.22Z"/>
  <path class="cls-5" d="M252.4,126.86h-7.62v-15h23.72v32.82c0,3.07-1.18,5.68-3.55,7.86-2.33,2.14-5.11,3.21-8.34,3.21h-23.67c-3.23,0-6-1.07-8.34-3.21-2.36-2.17-3.54-4.79-3.54-7.86v-58.93c0-3.07,1.18-5.68,3.54-7.86,2.33-2.14,5.11-3.21,8.34-3.21h23.67c3.23,0,6,1.07,8.34,3.21,2.36,2.17,3.55,4.79,3.55,7.86v16.29h-16.1v-12.36h-15.24v51.07h15.24v-13.89Z"/>
  <path class="cls-7" d="M295.43,140.75h26.83v15h-42.93v-81.07h42.93v15h-26.83v18.01h22.33v15.04h-22.33v18.01Z"/>
  <path class="cls-8" d="M346.6,126.86v28.89h-16.1v-81.07h35.55c3.23,0,6,1.07,8.34,3.21,2.36,2.17,3.55,4.79,3.55,7.86v20.89c0,5.3-2.06,9.54-6.18,12.7,4.12,3.16,6.18,7.43,6.18,12.79v23.62h-16.1v-23.62c0-1.47-.58-2.73-1.73-3.79-1.15-.99-2.49-1.48-4.02-1.48h-9.49ZM356.08,111.86c1.53,0,2.87-.51,4.02-1.53,1.15-.99,1.73-2.22,1.73-3.69v-16.96h-15.24v22.18h9.49Z"/>
  <path class="cls-1" d="M44.13,74.68h33.49c3.26,0,6.07,1.07,8.43,3.21,2.36,2.17,3.54,4.79,3.54,7.86v16.72c0,4.89-1.76,8.88-5.27,11.98,4.82,3.19,7.23,7.7,7.23,13.51v7.52c0,6.2-2.37,11.18-7.09,14.95-4.44,3.54-9.98,5.32-16.63,5.32h-23.72v-81.07ZM60.23,89.68v18.01h7.43c1.56,0,2.92-.5,4.07-1.48,1.18-1.05,1.77-2.3,1.77-3.74v-12.79h-13.27ZM75.88,111.55c.15-.2.13-.48-.07-.64l-4.02.38c-.16.02-.28.09-.32.24l-2.23,7.32h-11.48l2.37,26.73c.04.36.44.65.99.65h10.46c.54,0,.94-.3.99-.65l2.38-26.73h-5.03l2.12-6.93,3.86-.36ZM69.04,119.47l-1.9,6.21s0,0,0,0c-1.08-.16-2.2-.42-3.38-.78-.67-.18-1.32-.33-1.95-.44-.63-.11-1.23-.19-1.8-.23-.4-.03-.78-.04-1.15-.04l-.42-4.72h10.6ZM74.25,119.47l-.51,5.79c-.24.08-.48.15-.72.22-.88.23-1.81.36-2.79.39-.78.03-1.59-.01-2.43-.11l1.92-6.3h4.54Z"/>
  <path class="cls-2" d="M337.63,78.17c.39-2.12.52-4.7.28-5.56-.61-2.27-2.87-3.64-5.1-3.1-.78.19-1.41.55-2.02,1.16-.95.95-1.24,1.77-1.3,3.67-.13,3.88-1.81,8.34-4.48,11.88-1.08,1.42-2.9,3.3-4.3,4.41-2.8,2.22-6.08,4.01-10.06,5.46-.66.25-1.35.53-1.52.64-.84.53-1.44,1.24-1.82,2.16-.2.5-.21.59-.21,1.46,0,1.12.13,1.58.66,2.38.54.8,1.28,1.37,2.2,1.7.37.13.59.16,1.31.17.82,0,.9-.01,1.66-.27,6.16-2.08,11.76-5.45,15.89-9.57,4.65-4.64,7.65-10.29,8.8-16.58Z"/>
  <path class="cls-3" d="M311.33,94.71c.26-.06,2.02-.83,2.69-1.16l.58-.29-.98-1.06c-.54-.59-1.06-1.11-1.17-1.16-.37-.19-.48-.13-1.5.73-.53.46-.99.89-1.02.97-.07.21.18.68.73,1.37.44.56.52.64.67.59Z"/>
  <path class="cls-3" d="M354.21,44.41c.95-.51,1.89-1.25,2.96-2.32,1-.99,1.67-1.8,2.42-2.92.17-.25.31-.46.32-.46.02-.04,1.03.34,1.46.54,1.5.72,2.33,1.68,2.86,3.34.28.89.41,1.79.41,2.93,0,1.85-.33,3.07-1.13,4.25-.42.61-1.03,1.2-1.59,1.52-.31.18-.8.33-1.18.38-.42.05-.92-.02-1.23-.16-.3-.14-.67-.55-.88-.96-.39-.77-.54-1.41-.41-1.76.13-.33.39-.45.94-.45.58,0,1.33.22,1.88.55.28.17.46.2.61.09.19-.13.26-.44.14-.64-.18-.3-1.19-.76-1.95-.89-1.34-.22-2.3.29-2.49,1.33-.06.32-.02.99.08,1.37.17.64.58,1.29,1.08,1.72.3.25.85.54,1.21.63.55.14,1.3.11,1.91-.1,1.67-.56,3.17-2.36,3.71-4.45.18-.7.22-1.05.22-2.03s-.04-1.41-.24-2.35c-.21-1-.64-2.32-.96-2.94-.66-1.27-2.01-2.24-3.85-2.78-.03,0,0-.09.09-.26.85-1.5,1.63-3.44,1.93-4.8.46-2.12.27-4.01-.56-5.41-.24-.4-.71-.98-1.01-1.23l-.22-.18.19-.41c1.2-2.54,1.07-4.62-.39-6.35-.97-1.15-2.73-2.11-4.63-2.52-.41-.09-.52-.09-.64-.04-.15.06-.26.22-.28.4-.04.34.05.4.79.56.99.2,2.13.65,2.88,1.1.65.4,1.21.96,1.56,1.54.81,1.34.79,3.13-.07,4.94l-.13.26-.44-.23c-2.36-1.22-5.77-1.37-9.62-.42-2.58.63-4.52,1.58-5.75,2.8-.65.65-1.01,1.24-1.22,2-.09.33-.1.47-.1.92,0,.47,0,.56.11.84.34,1.02,1.27,1.64,2.71,1.82,1,.12,2.71,0,4.17-.29,1.51-.31,3.61-.95,4.89-1.51,2.12-.92,4.07-2.5,5.27-4.26.11-.15.21-.28.22-.28.05,0,.5.51.67.75,1.51,2.22,1.06,5.8-1.23,9.79l-.15.25-.42-.07c-.8-.13-1.41-.16-2.56-.14-1.11.02-1.59.07-2.4.22-1.69.33-3.03,1.06-3.78,2.05-.43.57-.61,1.05-.65,1.74-.07,1.29.6,2.74,1.52,3.29.71.43,1.83.31,2.98-.31ZM358.68,27.38c-.76.9-2.01,1.98-2.79,2.42-1.41.8-4.08,1.74-6.26,2.19-2.59.54-4.44.42-5.28-.33-.38-.34-.54-.75-.53-1.35.02-1.7,1.51-3.09,4.38-4.07,1.5-.52,3.25-.91,4.55-1.02.28-.02.59-.05.69-.06.3-.03,1.92.01,2.33.05.88.09,1.83.28,2.55.51.42.13,1.19.49,1.19.54,0,.06-.44.65-.82,1.1ZM351.74,43.89c-.62-.31-1.03-1.12-1.08-2.12-.02-.54.04-.87.22-1.25.56-1.12,2.17-1.89,4.54-2.16.69-.08,2.49-.05,3.07.04.24.04.44.07.45.08.04.04-.73,1.06-1.31,1.76-.23.28-.74.83-1.13,1.21-1.39,1.39-2.38,2.1-3.39,2.43-.27.09-.41.11-.74.11-.38,0-.43,0-.63-.11Z"/>
  <path class="cls-3" d="M328.14,104.13c-.4-.4-1.07-.98-1.48-1.28-.6-.45-2.2-1.45-3.33-2.09l-.21-.12-1.07.64c-1.04.63-3.2,1.75-4.33,2.26l-.57.26.27.67c.15.37.54,1.36.86,2.2.88,2.23,1.48,3.34,2.49,4.63.82,1.04,10.42,12.29,10.61,12.42.26.19.79.23,1.07.07.37-.21,6.51-5.48,6.66-5.71.17-.28.17-.77,0-1.06-.26-.43-10.26-12.15-10.98-12.87Z"/>
  <path class="cls-2" d="M376.16,65.23c-1.06-4.92-4.84-8.6-9.68-9.44-.76-.13-2.54-.23-3.01-.16-.11.01-.46.06-.76.1-3.23.43-6.35,2.39-8.2,5.15-.98,1.47-1.64,3.18-1.93,4.97-.13.83-.11,2.82.04,3.66.62,3.45,2.6,6.4,5.53,8.23.54.35,1.87.96,2.56,1.18,1.34.44,1.98.53,3.76.53,1.53,0,1.67-.01,2.45-.2,4.81-1.13,8.21-4.58,9.24-9.37.13-.64.15-.93.16-2.31,0-1.42-.02-1.67-.16-2.34Z"/>
  <path class="cls-2" d="M334.69,62.57c-.39.03-1.17.16-1.72.28-1.44.3-2.16.39-3.56.48-2.77.17-6.27-.12-11.79-.97-7.31-1.14-7.78-1.19-10.42-1.2-3,0-5.11.29-7.03.99l-.52.19-.77-.46c-4.88-2.94-10.13-4.81-15.32-5.45-.99-.12-3.61-.29-4.15-.26-.11,0-.7.03-1.31.06-4.49.21-9.1,1.51-13.16,3.69-1.08.58-1.79,1-1.84,1.08-.03.04.12.06.39.03,1.04-.1,3.42-.19,6.35-.23,8.33-.11,18.22.61,27.52,2l1.04.16-.45.3c-.25.17-.51.36-.59.43-.14.12-.2.12-2.38-.18-8.78-1.2-17.34-1.77-25.14-1.67-3.46.05-5.02.11-7.87.33-5.27.4-9.87,1.12-14.29,2.24-2.18.55-2.96.81-3.69,1.24-.77.46-1.83,1.52-2.29,2.29-.39.66-.76,1.69-.88,2.44-.1.7-.04,1.97.14,2.65.61,2.3,2.42,4.12,4.74,4.77,1.17.32,2.38.28,3.97-.16,5.15-1.39,10.22-2.12,16.78-2.42,2-.09,7.96-.09,10.15,0,6.92.28,14.08,1.01,21.05,2.14l1.68.28.36.29c1.98,1.6,4.24,2.74,6.76,3.37,5.26,1.32,11.67,2.04,17.13,1.9,1.01-.02,1.93-.06,2.05-.08.21-.03.26-.1.64-.84.75-1.48,1.35-3.09,1.73-4.74.3-1.25.42-2.15.48-3.52.07-1.39.15-1.81.55-2.62.62-1.31,1.69-2.24,3.12-2.74.61-.21.7-.22,1.62-.23.82,0,1.04.02,1.49.16,1.89.59,3.25,2.04,3.7,3.94.34,1.42-.1,5.73-.84,8.29-.06.2-.1.39-.08.42.03.08,2.01-.47,2.83-.79,4.01-1.55,6.63-4.55,6.98-8.01.17-1.62-.27-3.18-1.27-4.64-2.51-3.63-7.18-5.68-11.87-5.19Z"/>
</svg>